<?xml version="1.0" encoding="UTF-8" standalone="no"?>
<!-- Created with Inkscape (http://www.inkscape.org/) -->

<svg
   xmlns:dc="http://purl.org/dc/elements/1.1/"
   xmlns:cc="http://creativecommons.org/ns#"
   xmlns:rdf="http://www.w3.org/1999/02/22-rdf-syntax-ns#"
   xmlns:svg="http://www.w3.org/2000/svg"
   xmlns="http://www.w3.org/2000/svg"
   xmlns:sodipodi="http://sodipodi.sourceforge.net/DTD/sodipodi-0.dtd"
   xmlns:inkscape="http://www.inkscape.org/namespaces/inkscape"
   width="210mm"
   height="297mm"
   viewBox="0 0 210 297"
   version="1.1"
   id="svg5"
   inkscape:version="0.92.3 (2405546, 2018-03-11)"
   sodipodi:docname="рисунок.svg">
  <metadata
     id="metadata3767">
    <rdf:RDF>
      <cc:Work
         rdf:about="">
        <dc:format>image/svg+xml</dc:format>
        <dc:type
           rdf:resource="http://purl.org/dc/dcmitype/StillImage" />
        <dc:title></dc:title>
      </cc:Work>
    </rdf:RDF>
  </metadata>
  <sodipodi:namedview
     id="namedview7"
     pagecolor="#ffffff"
     bordercolor="#666666"
     borderopacity="1.0"
     inkscape:pageshadow="2"
     inkscape:pageopacity="0.0"
     inkscape:pagecheckerboard="0"
     inkscape:document-units="mm"
     showgrid="false"
     inkscape:zoom="0.5234703"
     inkscape:cx="309.04847"
     inkscape:cy="592.21186"
     inkscape:window-width="1600"
     inkscape:window-height="838"
     inkscape:window-x="-8"
     inkscape:window-y="-8"
     inkscape:window-maximized="1"
     inkscape:current-layer="layer1" />
  <defs
     id="defs2">
    <clipPath
       clipPathUnits="userSpaceOnUse"
       id="clipEmfPath1">
      <path
         d="M -47.197549,-0.79995845 L 670.84516,-0.79995845 L 670.84516,51.357333 L -47.197549,51.357333 z"
         id="path1549" />
    </clipPath>
    <pattern
       id="EMFhbasepattern"
       patternUnits="userSpaceOnUse"
       width="6"
       height="6"
       x="0"
       y="0" />
    <pattern
       id="EMFhbasepattern-5"
       patternUnits="userSpaceOnUse"
       width="6"
       height="6"
       x="0"
       y="0" />
    <clipPath
       id="clipEmfPath1-5"
       clipPathUnits="userSpaceOnUse">
      <path
         id="path3829"
         d="M -47.197549,-0.31998338 L 670.84516,-0.31998338 L 670.84516,21.118903 L -47.197549,21.118903 z" />
    </clipPath>
    <pattern
       y="0"
       x="0"
       height="6"
       width="6"
       patternUnits="userSpaceOnUse"
       id="EMFhbasepattern-8" />
    <clipPath
       id="clipEmfPath1-4"
       clipPathUnits="userSpaceOnUse">
      <path
         id="path3862"
         d="M -47.197549,-0.31998338 L 670.84516,-0.31998338 L 670.84516,21.118903 L -47.197549,21.118903 z" />
    </clipPath>
    <pattern
       y="0"
       x="0"
       height="6"
       width="6"
       patternUnits="userSpaceOnUse"
       id="EMFhbasepattern-4" />
    <pattern
       y="0"
       x="0"
       height="6"
       width="6"
       patternUnits="userSpaceOnUse"
       id="EMFhbasepattern-6" />
    <pattern
       y="0"
       x="0"
       height="6"
       width="6"
       patternUnits="userSpaceOnUse"
       id="EMFhbasepattern-9" />
  </defs>
  <g
     inkscape:label="Слой 1"
     inkscape:groupmode="layer"
     id="layer1">
    <rect
       style="opacity:1;fill:#000000;fill-opacity:0.99645386;stroke:none;stroke-width:1.26118636;stroke-miterlimit:4;stroke-dasharray:none;stroke-opacity:1"
       id="rect4922"
       width="212.42377"
       height="156.70622"
       x="-1.368278"
       y="141.67149" />
    <path
       inkscape:connector-curvature="0"
       id="path4795"
       style="font-style:normal;font-variant:normal;font-weight:normal;font-stretch:normal;font-size:20.59648323px;line-height:125%;font-family:'Bauhaus 93';-inkscape-font-specification:'Bauhaus 93, Normal';font-variant-ligatures:normal;font-variant-caps:normal;font-variant-numeric:normal;font-feature-settings:normal;text-align:start;letter-spacing:0px;word-spacing:0px;writing-mode:lr-tb;text-anchor:start;fill:#000000;fill-opacity:1;stroke:none;stroke-width:2.08987856"
       d="m 40.340296,50.395957 v 7.369121 q -0.850292,-0.284146 -1.314086,-0.284146 -0.888941,0 -1.526659,0.644086 -0.63772,0.644095 -0.63772,1.553378 0,0.776712 0.695695,1.970166 l 0.59907,1.022991 q 1.623279,2.765772 1.623279,5.342113 0,3.769823 -2.744122,6.384071 -2.724795,2.614276 -6.667057,2.614276 -1.893831,0 -3.749011,-0.852496 V 68.67673 q 1.120837,0.700912 1.990451,0.700912 1.024215,0 1.700585,-0.568325 0.695696,-0.587236 0.695696,-1.458671 0,-0.568312 -1.101516,-2.481647 -1.758559,-3.031019 -1.758559,-6.062008 0,-3.656138 2.6475,-6.289335 2.666823,-2.652122 6.357862,-2.652122 1.623286,0 3.188592,0.530423 z" />
    <path
       inkscape:connector-curvature="0"
       id="path4797"
       style="font-style:normal;font-variant:normal;font-weight:normal;font-stretch:normal;font-size:20.59648323px;line-height:125%;font-family:'Bauhaus 93';-inkscape-font-specification:'Bauhaus 93, Normal';font-variant-ligatures:normal;font-variant-caps:normal;font-variant-numeric:normal;font-feature-settings:normal;text-align:start;letter-spacing:0px;word-spacing:0px;writing-mode:lr-tb;text-anchor:start;fill:#000000;fill-opacity:1;stroke:none;stroke-width:2.08987856"
       d="M 62.737751,68.070541 H 51.780586 q -0.251225,-0.814605 -0.251225,-1.496608 0,-0.947161 0.347849,-1.856459 h 3.671714 q -0.386495,-2.102767 -2.415601,-2.102767 -1.352737,0 -2.203025,1.136608 Q 50.08,64.868999 50.08,66.630808 q 0,1.83755 0.811646,2.974129 0.830964,1.136668 2.164376,1.136668 1.082189,0 2.087081,-1.060868 l 4.116183,4.849645 q -2.879397,2.216414 -6.39651,2.216414 -4.29011,0 -7.208157,-2.822648 -2.918045,-2.822603 -2.918045,-6.99026 0,-4.148688 2.937371,-7.009213 2.956695,-2.86049 7.246803,-2.86049 4.193484,0 7.034233,2.803644 2.86007,2.784755 2.86007,6.876628 0,0.416741 -0.07731,1.326084 z" />
    <path
       inkscape:connector-curvature="0"
       id="path4799"
       style="font-style:normal;font-variant:normal;font-weight:normal;font-stretch:normal;font-size:20.59648323px;line-height:125%;font-family:'Bauhaus 93';-inkscape-font-specification:'Bauhaus 93, Normal';font-variant-ligatures:normal;font-variant-caps:normal;font-variant-numeric:normal;font-feature-settings:normal;text-align:start;letter-spacing:0px;word-spacing:0px;writing-mode:lr-tb;text-anchor:start;fill:#000000;fill-opacity:1;stroke:none;stroke-width:2.08987856"
       d="M 92.188762,76.367917 H 84.961286 V 66.176175 q 0,-1.174545 -0.25123,-1.62921 -0.251217,-0.454649 -0.908258,-0.454649 -1.217468,0 -1.217468,2.102724 V 76.367917 H 75.356852 V 66.176175 q 0,-1.174545 -0.270546,-1.62921 -0.251224,-0.454649 -0.908264,-0.454649 -1.198141,0 -1.198141,2.102724 V 76.367917 H 65.752423 V 64.736383 q 0,-3.182529 2.1837,-5.398959 2.183706,-2.235373 5.295001,-2.235373 3.207918,0 5.758792,2.652144 2.84075,-2.652144 5.681498,-2.652144 3.61374,0 5.797438,2.576345 1.71991,2.008059 1.71991,5.853638 z" />
    <path
       inkscape:connector-curvature="0"
       id="path4801"
       style="font-style:normal;font-variant:normal;font-weight:normal;font-stretch:normal;font-size:20.59648323px;line-height:125%;font-family:'Bauhaus 93';-inkscape-font-specification:'Bauhaus 93, Normal';font-variant-ligatures:normal;font-variant-caps:normal;font-variant-numeric:normal;font-feature-settings:normal;text-align:start;letter-spacing:0px;word-spacing:0px;writing-mode:lr-tb;text-anchor:start;fill:#000000;fill-opacity:1;stroke:none;stroke-width:2.08987856"
       d="M 103.66771,57.480932 V 76.367917 H 96.440222 V 57.480932 Z"
       sodipodi:nodetypes="ccccc" />
    <path
       inkscape:connector-curvature="0"
       id="path4803"
       style="font-style:normal;font-variant:normal;font-weight:normal;font-stretch:normal;font-size:20.59648323px;line-height:125%;font-family:'Bauhaus 93';-inkscape-font-specification:'Bauhaus 93, Normal';font-variant-ligatures:normal;font-variant-caps:normal;font-variant-numeric:normal;font-feature-settings:normal;text-align:start;letter-spacing:0px;word-spacing:0px;writing-mode:lr-tb;text-anchor:start;fill:#000000;fill-opacity:1;stroke:none;stroke-width:2.08987856"
       d="m 125.13755,76.367917 h -7.22747 V 65.702542 q 0,-1.629179 -1.37206,-1.629179 -1.35273,0 -1.35273,1.629179 v 10.665375 h -7.22748 V 65.835128 q 0,-3.69401 2.4929,-6.213563 2.4929,-2.538437 6.10664,-2.538437 4.13551,0 6.62841,2.93627 1.95179,2.2922 1.95179,6.384072 z" />
    <path
       inkscape:connector-curvature="0"
       id="path4805"
       style="font-style:normal;font-variant:normal;font-weight:normal;font-stretch:normal;font-size:20.59648323px;line-height:125%;font-family:'Bauhaus 93';-inkscape-font-specification:'Bauhaus 93, Normal';font-variant-ligatures:normal;font-variant-caps:normal;font-variant-numeric:normal;font-feature-settings:normal;text-align:start;letter-spacing:0px;word-spacing:0px;writing-mode:lr-tb;text-anchor:start;fill:#000000;fill-opacity:1;stroke:none;stroke-width:2.08987856"
       d="m 140.07565,69.282934 v 7.331262 q -0.88895,0.151715 -1.6233,0.151715 -4.34808,0 -7.24681,-2.803679 -2.8987,-2.80365 -2.8987,-7.028138 0,-4.110782 2.91804,-6.971336 2.93738,-2.860505 7.13086,-2.860505 4.6766,0 7.36276,2.690041 2.70547,2.671092 2.70547,7.312308 v 9.263491 h -7.22748 v -8.751996 q 0,-1.496563 -0.75368,-2.386937 -0.73432,-0.89036 -1.99046,-0.89036 -1.14015,0 -1.97113,0.814619 -0.83096,0.814574 -0.83096,1.932273 0,1.174471 0.75366,1.932259 0.75368,0.757744 1.91317,0.757744 0.94691,0 1.75856,-0.492541 z" />
    <path
       inkscape:connector-curvature="0"
       id="path4807"
       style="font-style:normal;font-variant:normal;font-weight:normal;font-stretch:normal;font-size:20.59648323px;line-height:125%;font-family:'Bauhaus 93';-inkscape-font-specification:'Bauhaus 93, Normal';font-variant-ligatures:normal;font-variant-caps:normal;font-variant-numeric:normal;font-feature-settings:normal;text-align:start;letter-spacing:0px;word-spacing:0px;writing-mode:lr-tb;text-anchor:start;fill:#000000;fill-opacity:1;stroke:none;stroke-width:2.08987856"
       d="m 163.20744,57.291492 v 7.577507 q -0.75365,-0.416742 -1.37205,-0.416742 -1.97114,0 -1.97114,2.95522 v 8.96044 h -7.22747 V 66.043529 q 0,-4.091887 2.28033,-6.516657 2.28033,-2.443744 6.08731,-2.443744 0.85026,0 2.20302,0.208347 z" />
    <path
       inkscape:connector-curvature="0"
       id="path4809"
       style="font-style:normal;font-variant:normal;font-weight:normal;font-stretch:normal;font-size:20.59648323px;line-height:125%;font-family:'Bauhaus 93';-inkscape-font-specification:'Bauhaus 93, Normal';font-variant-ligatures:normal;font-variant-caps:normal;font-variant-numeric:normal;font-feature-settings:normal;text-align:start;letter-spacing:0px;word-spacing:0px;writing-mode:lr-tb;text-anchor:start;fill:#000000;fill-opacity:1;stroke:none;stroke-width:2.46154428"
       d="m 168.41045,88.371803 v -7.001072 q 1.79178,0.689367 3.13565,0.689367 4.29089,0 5.56398,-4.416106 -2.31045,1.24945 -4.52666,1.24945 -3.27708,0 -5.39896,-2.218821 -2.12184,-2.240342 -2.12184,-5.687061 V 57.480932 h 8.81752 v 11.546364 q 0,1.917223 1.74464,1.917223 1.6739,0 1.6739,-2.111086 V 57.480932 h 8.81755 V 76.65307 q 0,5.363914 -3.30068,8.659797 -3.93722,3.920601 -9.5248,3.920601 -2.45196,0 -4.8803,-0.861665 z" />
    <text
       id="text4782"
       y="92.056313"
       x="25.111826"
       style="font-style:normal;font-variant:normal;font-weight:bold;font-stretch:normal;font-size:13.64022636px;line-height:125%;font-family:Aharoni;-inkscape-font-specification:'Aharoni, Bold';font-variant-ligatures:normal;font-variant-caps:normal;font-variant-numeric:normal;font-feature-settings:normal;text-align:start;letter-spacing:0px;word-spacing:0px;writing-mode:lr-tb;text-anchor:start;fill:#ff0000;fill-opacity:1;stroke:none;stroke-width:0.85252184"
       xml:space="preserve"
       transform="scale(1.0334076,0.96767238)"><tspan
         id="tspan4780"
         y="92.056313"
         x="25.111826"
         sodipodi:role="line"
         style="font-style:normal;font-variant:normal;font-weight:bold;font-stretch:normal;font-size:13.64022636px;font-family:Aharoni;-inkscape-font-specification:'Aharoni, Bold';font-variant-ligatures:normal;font-variant-caps:normal;font-variant-numeric:normal;font-feature-settings:normal;text-align:start;writing-mode:lr-tb;text-anchor:start;fill:#ff0000;fill-opacity:1;stroke-width:0.85252184"><tspan
           id="tspan4776"
           style="font-style:normal;font-variant:normal;font-weight:bold;font-stretch:normal;font-size:13.64022636px;font-family:Aharoni;-inkscape-font-specification:'Aharoni, Bold';font-variant-ligatures:normal;font-variant-caps:normal;font-variant-numeric:normal;font-feature-settings:normal;text-align:start;writing-mode:lr-tb;text-anchor:start;fill:#ff0000;fill-opacity:1;stroke-width:0.85252184"
           dy="0"
           dx="0">Online English school</tspan><tspan
           id="tspan4778"
           style="font-style:normal;font-variant:normal;font-weight:bold;font-stretch:normal;font-size:13.64022636px;font-family:Aharoni;-inkscape-font-specification:'Aharoni, Bold';font-variant-ligatures:normal;font-variant-caps:normal;font-variant-numeric:normal;font-feature-settings:normal;text-align:start;writing-mode:lr-tb;text-anchor:start;fill:#ff0000;fill-opacity:1;stroke-width:0.85252184"
           dy="0"
           dx="0"> </tspan></tspan></text>
    <path
       inkscape:connector-curvature="0"
       id="path4795-2"
       style="font-style:normal;font-variant:normal;font-weight:normal;font-stretch:normal;font-size:20.59648323px;line-height:125%;font-family:'Bauhaus 93';-inkscape-font-specification:'Bauhaus 93, Normal';font-variant-ligatures:normal;font-variant-caps:normal;font-variant-numeric:normal;font-feature-settings:normal;text-align:start;letter-spacing:0px;word-spacing:0px;writing-mode:lr-tb;text-anchor:start;fill:#ffffff;fill-opacity:1;stroke:none;stroke-width:1.95523608"
       d="m 44.43903,198.86144 v 6.89436 q -0.795511,-0.26583 -1.229425,-0.26583 -0.83167,0 -1.428303,0.60258 -0.596634,0.6026 -0.596634,1.4533 0,0.72668 0.650874,1.84324 l 0.560475,0.95708 q 1.518698,2.58759 1.518698,4.99794 0,3.52695 -2.56733,5.97278 -2.549248,2.44585 -6.237526,2.44585 -1.77182,0 -3.507479,-0.79758 v -7.0007 q 1.048626,0.65575 1.862215,0.65575 0.958229,0 1.591025,-0.53171 0.650874,-0.5494 0.650874,-1.36469 0,-0.53169 -1.030549,-2.32176 -1.645264,-2.83575 -1.645264,-5.67146 0,-3.42058 2.476934,-5.88414 2.49501,-2.48125 5.94825,-2.48125 1.518704,0 2.983165,0.49624 z" />
    <path
       inkscape:connector-curvature="0"
       id="path4797-2"
       style="font-style:normal;font-variant:normal;font-weight:normal;font-stretch:normal;font-size:20.59648323px;line-height:125%;font-family:'Bauhaus 93';-inkscape-font-specification:'Bauhaus 93, Normal';font-variant-ligatures:normal;font-variant-caps:normal;font-variant-numeric:normal;font-feature-settings:normal;text-align:start;letter-spacing:0px;word-spacing:0px;writing-mode:lr-tb;text-anchor:start;fill:#ffffff;fill-opacity:1;stroke:none;stroke-width:1.95523608"
       d="M 65.393511,215.39732 H 55.142263 q -0.235037,-0.76212 -0.235037,-1.40018 0,-0.88614 0.325442,-1.73686 h 3.435158 q -0.361592,-1.96729 -2.259975,-1.96729 -1.265588,0 -2.061089,1.06338 -0.795515,1.04568 -0.795515,2.69398 0,1.71917 0.75935,2.78251 0.777426,1.06344 2.024939,1.06344 1.012462,0 1.952622,-0.99252 l 3.850991,4.53721 q -2.693897,2.07362 -5.98441,2.07362 -4.013712,0 -6.743767,-2.6408 -2.730047,-2.64076 -2.730047,-6.53991 0,-3.8814 2.748128,-6.55763 2.766215,-2.67621 6.779926,-2.67621 3.923307,0 6.58104,2.62302 2.675808,2.60535 2.675808,6.4336 0,0.38989 -0.07233,1.24064 z" />
    <path
       inkscape:connector-curvature="0"
       id="path4799-4"
       style="font-style:normal;font-variant:normal;font-weight:normal;font-stretch:normal;font-size:20.59648323px;line-height:125%;font-family:'Bauhaus 93';-inkscape-font-specification:'Bauhaus 93, Normal';font-variant-ligatures:normal;font-variant-caps:normal;font-variant-numeric:normal;font-feature-settings:normal;text-align:start;letter-spacing:0px;word-spacing:0px;writing-mode:lr-tb;text-anchor:start;fill:#ffffff;fill-opacity:1;stroke:none;stroke-width:1.95523608"
       d="m 92.947105,223.16014 h -6.761833 v -9.53513 q 0,-1.09888 -0.235042,-1.52425 -0.235033,-0.42536 -0.849752,-0.42536 -1.139018,0 -1.139018,1.96726 v 9.51748 h -6.761849 v -9.53513 q 0,-1.09888 -0.253113,-1.52425 -0.235037,-0.42536 -0.849755,-0.42536 -1.120943,0 -1.120943,1.96726 v 9.51748 h -6.76185 v -10.88216 q 0,-2.97749 2.043028,-5.05113 2.043014,-2.09136 4.953859,-2.09136 3.001249,0 5.38778,2.48128 2.657733,-2.48128 5.315448,-2.48128 3.380925,0 5.42395,2.41036 1.60909,1.87869 1.60909,5.47651 z" />
    <path
       inkscape:connector-curvature="0"
       id="path4801-7"
       style="font-style:normal;font-variant:normal;font-weight:normal;font-stretch:normal;font-size:20.59648323px;line-height:125%;font-family:'Bauhaus 93';-inkscape-font-specification:'Bauhaus 93, Normal';font-variant-ligatures:normal;font-variant-caps:normal;font-variant-numeric:normal;font-feature-settings:normal;text-align:start;letter-spacing:0px;word-spacing:0px;writing-mode:lr-tb;text-anchor:start;fill:#ffffff;fill-opacity:1;stroke:none;stroke-width:1.95523608"
       d="m 103.6865,205.48997 v 17.67017 h -6.761833 v -17.67017 z"
       sodipodi:nodetypes="ccccc" />
    <path
       inkscape:connector-curvature="0"
       id="path4803-4"
       style="font-style:normal;font-variant:normal;font-weight:normal;font-stretch:normal;font-size:20.59648323px;line-height:125%;font-family:'Bauhaus 93';-inkscape-font-specification:'Bauhaus 93, Normal';font-variant-ligatures:normal;font-variant-caps:normal;font-variant-numeric:normal;font-feature-settings:normal;text-align:start;letter-spacing:0px;word-spacing:0px;writing-mode:lr-tb;text-anchor:start;fill:#ffffff;fill-opacity:1;stroke:none;stroke-width:1.95523608"
       d="m 123.77315,223.16014 h -6.76184 v -9.97825 q 0,-1.52422 -1.28367,-1.52422 -1.26558,0 -1.26558,1.52422 v 9.97825 h -6.76186 v -9.85421 q 0,-3.45601 2.3323,-5.81324 2.3323,-2.3749 5.71322,-2.3749 3.86908,0 6.20137,2.7471 1.82606,2.14451 1.82606,5.97276 z" />
    <path
       inkscape:connector-curvature="0"
       id="path4805-8"
       style="font-style:normal;font-variant:normal;font-weight:normal;font-stretch:normal;font-size:20.59648323px;line-height:125%;font-family:'Bauhaus 93';-inkscape-font-specification:'Bauhaus 93, Normal';font-variant-ligatures:normal;font-variant-caps:normal;font-variant-numeric:normal;font-feature-settings:normal;text-align:start;letter-spacing:0px;word-spacing:0px;writing-mode:lr-tb;text-anchor:start;fill:#ffffff;fill-opacity:1;stroke:none;stroke-width:1.95523608"
       d="m 137.74883,216.53161 v 6.85893 q -0.83167,0.14195 -1.5187,0.14195 -4.06795,0 -6.77993,-2.62305 -2.71195,-2.62302 -2.71195,-6.57534 0,-3.84595 2.73004,-6.52221 2.74813,-2.67621 6.67144,-2.67621 4.37531,0 6.8884,2.51673 2.53117,2.49901 2.53117,6.84121 v 8.66668 h -6.76184 v -8.18814 q 0,-1.40015 -0.70512,-2.23316 -0.68703,-0.833 -1.86221,-0.833 -1.06672,0 -1.84414,0.76215 -0.77743,0.76209 -0.77743,1.80778 0,1.0988 0.7051,1.80777 0.70512,0.70893 1.78991,0.70893 0.8859,0 1.64526,-0.46081 z" />
    <path
       inkscape:connector-curvature="0"
       id="path4807-5"
       style="font-style:normal;font-variant:normal;font-weight:normal;font-stretch:normal;font-size:20.59648323px;line-height:125%;font-family:'Bauhaus 93';-inkscape-font-specification:'Bauhaus 93, Normal';font-variant-ligatures:normal;font-variant-caps:normal;font-variant-numeric:normal;font-feature-settings:normal;text-align:start;letter-spacing:0px;word-spacing:0px;writing-mode:lr-tb;text-anchor:start;fill:#ffffff;fill-opacity:1;stroke:none;stroke-width:1.95523608"
       d="m 159.39036,205.31272 v 7.08933 q -0.7051,-0.3899 -1.28365,-0.3899 -1.84417,0 -1.84417,2.76483 v 8.38316 h -6.76184 v -9.65923 q 0,-3.82827 2.13342,-6.09682 2.13342,-2.2863 5.69513,-2.2863 0.7955,0 2.06111,0.19492 z" />
    <path
       inkscape:connector-curvature="0"
       id="path4809-5"
       style="font-style:normal;font-variant:normal;font-weight:normal;font-stretch:normal;font-size:20.59648323px;line-height:125%;font-family:'Bauhaus 93';-inkscape-font-specification:'Bauhaus 93, Normal';font-variant-ligatures:normal;font-variant-caps:normal;font-variant-numeric:normal;font-feature-settings:normal;text-align:start;letter-spacing:0px;word-spacing:0px;writing-mode:lr-tb;text-anchor:start;fill:#ffffff;fill-opacity:1;stroke:none;stroke-width:2.30295706"
       d="m 164.25816,234.39066 v -6.55002 q 1.67634,0.64496 2.93363,0.64496 4.01443,0 5.2055,-4.1316 -2.16158,1.16895 -4.23501,1.16895 -3.06594,0 -5.05113,-2.07587 -1.98513,-2.096 -1.98513,-5.32066 v -12.63645 h 8.24943 v 10.80247 q 0,1.79371 1.63225,1.79371 1.56605,0 1.56605,-1.97508 v -10.6211 h 8.24947 v 17.93695 q 0,5.01834 -3.08804,8.10188 -3.68355,3.66801 -8.91113,3.66801 -2.294,0 -4.56589,-0.80615 z" />
    <text
       id="text4782-3"
       y="242.4482"
       x="30.033697"
       style="font-style:normal;font-variant:normal;font-weight:bold;font-stretch:normal;font-size:12.73738289px;line-height:125%;font-family:Aharoni;-inkscape-font-specification:'Aharoni, Bold';font-variant-ligatures:normal;font-variant-caps:normal;font-variant-numeric:normal;font-feature-settings:normal;text-align:start;letter-spacing:0px;word-spacing:0px;writing-mode:lr-tb;text-anchor:start;fill:#ff0000;fill-opacity:1;stroke:none;stroke-width:0.79609364"
       xml:space="preserve"
       transform="scale(1.0314594,0.96950011)"><tspan
         id="tspan4780-5"
         y="242.4482"
         x="30.033697"
         sodipodi:role="line"
         style="font-style:normal;font-variant:normal;font-weight:bold;font-stretch:normal;font-size:12.73738289px;font-family:Aharoni;-inkscape-font-specification:'Aharoni, Bold';font-variant-ligatures:normal;font-variant-caps:normal;font-variant-numeric:normal;font-feature-settings:normal;text-align:start;writing-mode:lr-tb;text-anchor:start;fill:#ff0000;fill-opacity:1;stroke-width:0.79609364"><tspan
           id="tspan4776-5"
           style="font-style:normal;font-variant:normal;font-weight:bold;font-stretch:normal;font-size:12.73738289px;font-family:Aharoni;-inkscape-font-specification:'Aharoni, Bold';font-variant-ligatures:normal;font-variant-caps:normal;font-variant-numeric:normal;font-feature-settings:normal;text-align:start;writing-mode:lr-tb;text-anchor:start;fill:#ff0000;fill-opacity:1;stroke-width:0.79609364"
           dy="0"
           dx="0">Online English school</tspan><tspan
           id="tspan4778-3"
           style="font-style:normal;font-variant:normal;font-weight:bold;font-stretch:normal;font-size:12.73738289px;font-family:Aharoni;-inkscape-font-specification:'Aharoni, Bold';font-variant-ligatures:normal;font-variant-caps:normal;font-variant-numeric:normal;font-feature-settings:normal;text-align:start;writing-mode:lr-tb;text-anchor:start;fill:#ff0000;fill-opacity:1;stroke-width:0.79609364"
           dy="0"
           dx="0"> </tspan></tspan></text>
    <path
       sodipodi:type="star"
       style="opacity:1;fill:#ff0000;fill-opacity:0.99645386;stroke:none;stroke-width:1;stroke-miterlimit:4;stroke-dasharray:none;stroke-opacity:1"
       id="path885"
       sodipodi:sides="3"
       sodipodi:cx="100.0722"
       sodipodi:cy="49.163395"
       sodipodi:r1="5.5397115"
       sodipodi:r2="2.7698557"
       sodipodi:arg1="1.5707963"
       sodipodi:arg2="2.6179939"
       inkscape:flatsided="false"
       inkscape:rounded="0"
       inkscape:randomized="0"
       d="m 100.0722,54.703106 -2.398769,-4.154783 -2.398765,-4.154784 4.797534,0 4.79753,0 -2.39877,4.154784 z"
       inkscape:transform-center-y="1.0275265"
       transform="matrix(0.72063698,0,0,0.74193549,27.956472,14.11693)" />
    <path
       sodipodi:type="star"
       style="opacity:1;fill:#ff0000;fill-opacity:0.99645386;stroke:none;stroke-width:1;stroke-miterlimit:4;stroke-dasharray:none;stroke-opacity:1"
       id="path885-9"
       sodipodi:sides="3"
       sodipodi:cx="100.45639"
       sodipodi:cy="197.11998"
       sodipodi:r1="5.5397115"
       sodipodi:r2="2.7698557"
       sodipodi:arg1="1.5707963"
       sodipodi:arg2="2.6179939"
       inkscape:flatsided="false"
       inkscape:rounded="0"
       inkscape:randomized="0"
       d="m 100.45639,202.65969 -2.398765,-4.15478 -2.398766,-4.15479 4.797531,0 4.79753,0 -2.39876,4.15479 z"
       inkscape:transform-center-y="0.96795977"
       transform="matrix(0.72063697,0,0,0.69892474,27.795751,61.998671)" />
  </g>
</svg>
